<?xml version="1.0" encoding="UTF-8" standalone="no"?>
<!-- Generator: Adobe Illustrator 19.0.0, SVG Export Plug-In . SVG Version: 6.00 Build 0)  -->

<svg
   xmlns:dc="http://purl.org/dc/elements/1.1/"
   xmlns:cc="http://creativecommons.org/ns#"
   xmlns:rdf="http://www.w3.org/1999/02/22-rdf-syntax-ns#"
   xmlns:svg="http://www.w3.org/2000/svg"
   xmlns="http://www.w3.org/2000/svg"
   xmlns:sodipodi="http://sodipodi.sourceforge.net/DTD/sodipodi-0.dtd"
   xmlns:inkscape="http://www.inkscape.org/namespaces/inkscape"
   version="1.1"
   id="Layer_1"
   x="0px"
   y="0px"
   viewBox="0 0 309.267 309.267"
   style="enable-background:new 0 0 309.267 309.267;"
   xml:space="preserve"
   inkscape:version="0.91 r13725"
   sodipodi:docname="pdf.svg"><metadata
     id="metadata8225"><rdf:RDF><cc:Work
         rdf:about=""><dc:format>image/svg+xml</dc:format><dc:type
           rdf:resource="http://purl.org/dc/dcmitype/StillImage" /></cc:Work></rdf:RDF></metadata><defs
     id="defs8223" /><sodipodi:namedview
     pagecolor="#ffffff"
     bordercolor="#666666"
     borderopacity="1"
     objecttolerance="10"
     gridtolerance="10"
     guidetolerance="10"
     inkscape:pageopacity="0"
     inkscape:pageshadow="2"
     inkscape:window-width="1340"
     inkscape:window-height="720"
     id="namedview8221"
     showgrid="false"
     inkscape:zoom="1.7137296"
     inkscape:cx="154.6335"
     inkscape:cy="154.6335"
     inkscape:window-x="12"
     inkscape:window-y="34"
     inkscape:window-maximized="0"
     inkscape:current-layer="Layer_1" /><g
     id="g8183"><path
       style="fill:#E2574C;"
       d="M38.658,0h164.23l87.049,86.711v203.227c0,10.679-8.659,19.329-19.329,19.329H38.658   c-10.67,0-19.329-8.65-19.329-19.329V19.329C19.329,8.65,27.989,0,38.658,0z"
       id="path8185" /><path
       style="fill:#B53629;"
       d="M289.658,86.981h-67.372c-10.67,0-19.329-8.659-19.329-19.329V0.193L289.658,86.981z"
       id="path8187" /><path
       style="fill:#FFFFFF;"
       d="M217.434,146.544c3.238,0,4.823-2.822,4.823-5.557c0-2.832-1.653-5.567-4.823-5.567h-18.44   c-3.605,0-5.615,2.986-5.615,6.282v45.317c0,4.04,2.3,6.282,5.412,6.282c3.093,0,5.403-2.242,5.403-6.282v-12.438h11.153   c3.46,0,5.19-2.832,5.19-5.644c0-2.754-1.73-5.49-5.19-5.49h-11.153v-16.903C204.194,146.544,217.434,146.544,217.434,146.544z    M155.107,135.42h-13.492c-3.663,0-6.263,2.513-6.263,6.243v45.395c0,4.629,3.74,6.079,6.417,6.079h14.159   c16.758,0,27.824-11.027,27.824-28.047C183.743,147.095,173.325,135.42,155.107,135.42z M155.755,181.946h-8.225v-35.334h7.413   c11.221,0,16.101,7.529,16.101,17.918C171.044,174.253,166.25,181.946,155.755,181.946z M106.33,135.42H92.964   c-3.779,0-5.886,2.493-5.886,6.282v45.317c0,4.04,2.416,6.282,5.663,6.282s5.663-2.242,5.663-6.282v-13.231h8.379   c10.341,0,18.875-7.326,18.875-19.107C125.659,143.152,117.425,135.42,106.33,135.42z M106.108,163.158h-7.703v-17.097h7.703   c4.755,0,7.78,3.711,7.78,8.553C113.878,159.447,110.863,163.158,106.108,163.158z"
       id="path8189" /></g><g
     id="g8191" /><g
     id="g8193" /><g
     id="g8195" /><g
     id="g8197" /><g
     id="g8199" /><g
     id="g8201" /><g
     id="g8203" /><g
     id="g8205" /><g
     id="g8207" /><g
     id="g8209" /><g
     id="g8211" /><g
     id="g8213" /><g
     id="g8215" /><g
     id="g8217" /><g
     id="g8219" /><rect
     style="opacity:1;fill:#e2574c;fill-opacity:1;stroke:#e2574c;stroke-width:2.52600002;stroke-linecap:butt;stroke-linejoin:miter;stroke-miterlimit:4;stroke-dasharray:none;stroke-dashoffset:0;stroke-opacity:1"
     id="rect8227"
     width="179.72498"
     height="95.697716"
     x="65.938057"
     y="113.78691" /><text
     xml:space="preserve"
     style="font-style:normal;font-variant:normal;font-weight:bold;font-stretch:normal;font-size:111.25228119px;line-height:125%;font-family:'Roboto Slab';-inkscape-font-specification:'Roboto Slab Bold';letter-spacing:11.04999352px;word-spacing:0px;fill:#ffffff;fill-opacity:1;stroke:none;stroke-width:1px;stroke-linecap:butt;stroke-linejoin:miter;stroke-opacity:1"
     x="48.773094"
     y="202.72339"
     id="text8229"
     sodipodi:linespacing="125%"
     transform="scale(0.92891187,1.0765284)"><tspan
       sodipodi:role="line"
       id="tspan8231"
       x="48.773094"
       y="202.72339">PDF</tspan></text>
</svg>